<?xml version="1.0" encoding="utf-8"?>
<!-- Generator: Adobe Illustrator 19.0.1, SVG Export Plug-In . SVG Version: 6.00 Build 0)  -->
<svg version="1.1" id="Layer_1" xmlns="http://www.w3.org/2000/svg" xmlns:xlink="http://www.w3.org/1999/xlink" x="0px" y="0px"
	 viewBox="102 20.9 800 800" style="enable-background:new 102 20.9 800 800;" xml:space="preserve">
<path d="M535.3,220.9c0-18.4-14.9-33.3-33.3-33.3c-18.4,0-33.3,14.9-33.3,33.3l0,166.7H302c-18.4,0-33.3,14.9-33.3,33.3
	c0,18.4,14.9,33.3,33.3,33.3l166.7,0l0,166.7c0,18.4,14.9,33.3,33.3,33.3c18.4,0,33.3-14.9,33.3-33.3l0-166.7H702
	c18.4,0,33.3-14.9,33.3-33.3c0-18.4-14.9-33.3-33.3-33.3l-166.7,0L535.3,220.9z"/>
</svg>
